<svg width="15" height="12" viewBox="0 0 15 12" fill="none" xmlns="http://www.w3.org/2000/svg">
<path d="M9.31016 0.0802092C9.23637 0.0324637 9.15129 0.00501306 9.06351 0.00062394C8.97573 -0.00376518 8.88834 0.0150622 8.81015 0.0552087L3.23505 2.75525H0.500009C0.367398 2.75525 0.240219 2.80793 0.146449 2.9017C0.0526793 2.99547 0 3.12265 0 3.25526V8.75535C0 8.88796 0.0526793 9.01514 0.146449 9.10891C0.240219 9.20268 0.367398 9.25535 0.500009 9.25535H3.23505L8.83015 11.9554C8.90626 11.9916 8.9903 12.0081 9.07445 12.0031C9.1586 11.9982 9.24014 11.9721 9.31149 11.9271C9.38283 11.8822 9.44167 11.82 9.48252 11.7463C9.52338 11.6726 9.54492 11.5897 9.54516 11.5054V0.505216C9.54533 0.420242 9.52384 0.336627 9.48273 0.262265C9.44161 0.187902 9.38222 0.125245 9.31016 0.0802092ZM1.00002 3.75527H2.85005V8.25534H1.00002V3.75527ZM8.54515 10.7104L3.85007 8.44034V3.57026L8.54515 1.30523V10.7104ZM12.1852 2.86525C12.116 2.75642 12.0075 2.67853 11.8822 2.64784C11.7569 2.61716 11.6247 2.63607 11.513 2.7006C11.4014 2.76514 11.319 2.87033 11.283 2.99418C11.2471 3.11804 11.2604 3.25099 11.3202 3.36526C11.7712 4.17297 12.008 5.08269 12.008 6.0078C12.008 6.93292 11.7712 7.84263 11.3202 8.65035C11.2604 8.76462 11.2471 8.89757 11.283 9.02142C11.319 9.14528 11.4014 9.25046 11.513 9.315C11.6247 9.37954 11.7569 9.39844 11.8822 9.36776C12.0075 9.33708 12.116 9.25919 12.1852 9.15035C12.7231 8.1912 13.0055 7.10997 13.0055 6.0103C13.0055 4.91064 12.7231 3.82941 12.1852 2.87025V2.86525Z" fill="#093181"/>
<path d="M11.0002 4.94036C10.9255 4.84558 10.819 4.781 10.7005 4.75855C10.5819 4.73609 10.4592 4.75728 10.355 4.8182C10.2508 4.87912 10.1722 4.97566 10.1336 5.09001C10.0951 5.20436 10.0992 5.3288 10.1452 5.44037C10.2439 5.60503 10.296 5.7934 10.296 5.98538C10.296 6.17736 10.2439 6.36573 10.1452 6.53039C10.0992 6.64196 10.0951 6.7664 10.1336 6.88075C10.1722 6.9951 10.2508 7.09164 10.355 7.15256C10.4592 7.21348 10.5819 7.23467 10.7005 7.21221C10.819 7.18976 10.9255 7.12518 11.0002 7.0304C11.1942 6.70905 11.2968 6.34078 11.2968 5.96538C11.2968 5.58997 11.1942 5.22171 11.0002 4.90036V4.94036ZM13.7952 1.22531C13.7624 1.16752 13.7185 1.11677 13.666 1.07595C13.6136 1.03513 13.5536 1.00504 13.4896 0.987398C13.4255 0.969755 13.3586 0.964904 13.2926 0.973124C13.2267 0.981343 13.163 1.00247 13.1052 1.0353C13.0474 1.06813 12.9967 1.11202 12.9559 1.16447C12.915 1.21691 12.8849 1.27688 12.8673 1.34096C12.8497 1.40503 12.8448 1.47195 12.853 1.5379C12.8612 1.60385 12.8824 1.66753 12.9152 1.72531C13.6264 3.04703 13.9986 4.52449 13.9986 6.02538C13.9986 7.52627 13.6264 9.00374 12.9152 10.3254C12.8489 10.4421 12.8317 10.5804 12.8673 10.7098C12.9029 10.8392 12.9885 10.9492 13.1052 11.0155C13.2219 11.0818 13.3602 11.099 13.4896 11.0634C13.619 11.0277 13.7289 10.9422 13.7952 10.8255C14.586 9.35718 15 7.71557 15 6.04788C15 4.38019 14.586 2.73858 13.7952 1.27031V1.22531Z" fill="#093181"/>
</svg>
