<svg width="15" height="17" viewBox="0 0 15 17" fill="none" xmlns="http://www.w3.org/2000/svg">
<path d="M10.9155 3.57676C10.9155 3.73408 10.8513 3.88495 10.7369 3.99619C10.6226 4.10743 10.4674 4.16992 10.3057 4.16992H6.36637C6.20464 4.16992 6.04953 4.10743 5.93517 3.99619C5.82081 3.88495 5.75657 3.73408 5.75657 3.57676C5.75657 3.41945 5.82081 3.26857 5.93517 3.15733C6.04953 3.04609 6.20464 2.9836 6.36637 2.9836H10.3057C10.4674 2.9836 10.6226 3.04609 10.7369 3.15733C10.8513 3.26857 10.9155 3.41945 10.9155 3.57676ZM4.22961 2.9836H3.60151C3.43978 2.9836 3.28468 3.04609 3.17032 3.15733C3.05595 3.26857 2.99171 3.41945 2.99171 3.57676C2.99171 3.73408 3.05595 3.88495 3.17032 3.99619C3.28468 4.10743 3.43978 4.16992 3.60151 4.16992H4.22961C4.39134 4.16992 4.54645 4.10743 4.66081 3.99619C4.77517 3.88495 4.83942 3.73408 4.83942 3.57676C4.83942 3.41945 4.77517 3.26857 4.66081 3.15733C4.54645 3.04609 4.39134 2.9836 4.22961 2.9836ZM10.3057 5.35625H6.36637C6.20464 5.35625 6.04953 5.41874 5.93517 5.52998C5.82081 5.64122 5.75657 5.79209 5.75657 5.94941C5.75657 6.10672 5.82081 6.2576 5.93517 6.36883C6.04953 6.48007 6.20464 6.54257 6.36637 6.54257H10.3057C10.4674 6.54257 10.6226 6.48007 10.7369 6.36883C10.8513 6.2576 10.9155 6.10672 10.9155 5.94941C10.9155 5.79209 10.8513 5.64122 10.7369 5.52998C10.6226 5.41874 10.4674 5.35625 10.3057 5.35625ZM4.22961 5.35625H3.60151C3.43978 5.35625 3.28468 5.41874 3.17032 5.52998C3.05595 5.64122 2.99171 5.79209 2.99171 5.94941C2.99171 6.10672 3.05595 6.2576 3.17032 6.36883C3.28468 6.48007 3.43978 6.54257 3.60151 6.54257H4.22961C4.39134 6.54257 4.54645 6.48007 4.66081 6.36883C4.77517 6.2576 4.83942 6.10672 4.83942 5.94941C4.83942 5.79209 4.77517 5.64122 4.66081 5.52998C4.54645 5.41874 4.39134 5.35625 4.22961 5.35625ZM10.3057 7.72889H6.36637C6.20464 7.72889 6.04953 7.79138 5.93517 7.90262C5.82081 8.01386 5.75657 8.16474 5.75657 8.32205C5.75657 8.47937 5.82081 8.63024 5.93517 8.74148C6.04953 8.85272 6.20464 8.91521 6.36637 8.91521H10.3057C10.4674 8.91521 10.6226 8.85272 10.7369 8.74148C10.8513 8.63024 10.9155 8.47937 10.9155 8.32205C10.9155 8.16474 10.8513 8.01386 10.7369 7.90262C10.6226 7.79138 10.4674 7.72889 10.3057 7.72889ZM4.22961 7.72889H3.60151C3.43978 7.72889 3.28468 7.79138 3.17032 7.90262C3.05595 8.01386 2.99171 8.16474 2.99171 8.32205C2.99171 8.47937 3.05595 8.63024 3.17032 8.74148C3.28468 8.85272 3.43978 8.91521 3.60151 8.91521H4.22961C4.39134 8.91521 4.54645 8.85272 4.66081 8.74148C4.77517 8.63024 4.83942 8.47937 4.83942 8.32205C4.83942 8.16474 4.77517 8.01386 4.66081 7.90262C4.54645 7.79138 4.39134 7.72889 4.22961 7.72889ZM15 13.6119C14.9998 14.2822 14.7952 14.9374 14.4121 15.4947C14.029 16.0519 13.4847 16.4861 12.8479 16.7425C12.2111 16.9988 11.5105 17.0656 10.8346 16.9346C10.1587 16.8036 9.53798 16.4806 9.05085 16.0065C8.56371 15.5323 8.23207 14.9282 8.09786 14.2707C7.96364 13.6132 8.03289 12.9318 8.29684 12.3125C8.56079 11.6933 9.00759 11.1641 9.58074 10.7919C10.1539 10.4197 10.8276 10.2211 11.5168 10.2214C12.4406 10.2226 13.3262 10.5803 13.9792 11.2159C14.6322 11.8516 14.9994 12.7132 15 13.6119ZM13.7804 13.6119C13.7804 13.1761 13.6475 12.7501 13.3986 12.3878C13.1497 12.0255 12.7959 11.7431 12.382 11.5764C11.9681 11.4097 11.5126 11.3662 11.0733 11.4513C10.6339 11.5364 10.2304 11.7463 9.91367 12.0545C9.59698 12.3627 9.38137 12.7554 9.29412 13.1828C9.20687 13.6102 9.2519 14.0532 9.4235 14.4557C9.59511 14.8583 9.88558 15.2022 10.2582 15.4442C10.6308 15.6861 11.0688 15.8151 11.5168 15.8149C12.117 15.8139 12.6924 15.5815 13.1168 15.1685C13.5411 14.7555 13.7797 14.1957 13.7804 13.6119ZM6.37857 11.7565H1.82942C1.66769 11.7565 1.51258 11.694 1.39822 11.5827C1.28386 11.4715 1.21961 11.3206 1.21961 11.1633V1.77948C1.21961 1.62217 1.28386 1.47129 1.39822 1.36006C1.51258 1.24882 1.66769 1.18632 1.82942 1.18632H12.0985C12.2603 1.18632 12.4154 1.24882 12.5297 1.36006C12.6441 1.47129 12.7084 1.62217 12.7084 1.77948V8.76692C12.7084 8.92424 12.7726 9.07511 12.887 9.18635C13.0013 9.29759 13.1564 9.36008 13.3182 9.36008C13.4799 9.36008 13.635 9.29759 13.7494 9.18635C13.8637 9.07511 13.928 8.92424 13.928 8.76692V1.77948C13.9273 1.30773 13.7344 0.855474 13.3914 0.521892C13.0485 0.18831 12.5835 0.000627753 12.0985 0H1.82942C1.34442 0.000627753 0.879479 0.18831 0.536537 0.521892C0.193594 0.855474 0.000645368 1.30773 0 1.77948V11.1633C0.000645368 11.635 0.193594 12.0873 0.536537 12.4209C0.879479 12.7545 1.34442 12.9421 1.82942 12.9428H6.37857C6.5403 12.9428 6.69541 12.8803 6.80977 12.769C6.92413 12.6578 6.98837 12.5069 6.98837 12.3496C6.98837 12.1923 6.92413 12.0414 6.80977 11.9302C6.69541 11.8189 6.5403 11.7565 6.37857 11.7565ZM11.5168 11.7565C11.3551 11.7565 11.2 11.8189 11.0856 11.9302C10.9712 12.0414 10.907 12.1923 10.907 12.3496V13.0187H10.5838C10.4221 13.0187 10.267 13.0812 10.1526 13.1924C10.0382 13.3037 9.97398 13.4545 9.97398 13.6119C9.97398 13.7692 10.0382 13.9201 10.1526 14.0313C10.267 14.1425 10.4221 14.205 10.5838 14.205H11.5168C11.6785 14.205 11.8336 14.1425 11.948 14.0313C12.0623 13.9201 12.1266 13.7692 12.1266 13.6119V12.3496C12.1266 12.1923 12.0623 12.0414 11.948 11.9302C11.8336 11.8189 11.6785 11.7565 11.5168 11.7565Z" fill="#093181"/>
</svg>
