<svg width="18" height="15" viewBox="0 0 18 15" fill="none" xmlns="http://www.w3.org/2000/svg">
<path d="M11.1722 0.096251C11.0836 0.0389564 10.9816 0.00601567 10.8762 0.000748728C10.7709 -0.00451822 10.666 0.0180746 10.5722 0.0662505L3.88207 3.3063H0.60001C0.440878 3.3063 0.288263 3.36952 0.175739 3.48204C0.0632152 3.59456 0 3.74718 0 3.90631V10.5064C0 10.6655 0.0632152 10.8182 0.175739 10.9307C0.288263 11.0432 0.440878 11.1064 0.60001 11.1064H3.88207L10.5962 14.3465C10.6875 14.39 10.7884 14.4097 10.8893 14.4038C10.9903 14.3978 11.0882 14.3665 11.1738 14.3126C11.2594 14.2587 11.33 14.184 11.379 14.0956C11.4281 14.0071 11.4539 13.9076 11.4542 13.8065V0.606259C11.4544 0.504291 11.4286 0.403953 11.3793 0.314718C11.3299 0.225482 11.2587 0.150294 11.1722 0.096251ZM1.20002 4.50632H3.42006V9.90641H1.20002V4.50632ZM10.2542 12.8525L4.62008 10.1284V4.28432L10.2542 1.56627V12.8525ZM14.6223 3.4383C14.5392 3.3077 14.409 3.21423 14.2586 3.17741C14.1083 3.14059 13.9496 3.16328 13.8156 3.24072C13.6816 3.31817 13.5828 3.44439 13.5396 3.59302C13.4965 3.74165 13.5125 3.90119 13.5842 4.03831C14.1255 5.00757 14.4096 6.09923 14.4096 7.20936C14.4096 8.3195 14.1255 9.41116 13.5842 10.3804C13.5125 10.5175 13.4965 10.6771 13.5396 10.8257C13.5828 10.9743 13.6816 11.1006 13.8156 11.178C13.9496 11.2554 14.1083 11.2781 14.2586 11.2413C14.409 11.2045 14.5392 11.111 14.6223 10.9804C15.2677 9.82943 15.6066 8.53196 15.6066 7.21236C15.6066 5.89277 15.2677 4.59529 14.6223 3.4443V3.4383Z" fill="#093181"/>
<path d="M13.2002 5.92844C13.1106 5.81469 12.9828 5.7372 12.8405 5.71025C12.6983 5.68331 12.551 5.70874 12.426 5.78184C12.301 5.85495 12.2067 5.9708 12.1604 6.10801C12.1141 6.24523 12.119 6.39456 12.1742 6.52845C12.2926 6.72604 12.3552 6.95208 12.3552 7.18246C12.3552 7.41283 12.2926 7.63888 12.1742 7.83647C12.119 7.97035 12.1141 8.11968 12.1604 8.2569C12.2067 8.39412 12.301 8.50997 12.426 8.58307C12.551 8.65617 12.6983 8.6816 12.8405 8.65466C12.9828 8.62772 13.1106 8.55022 13.2002 8.43648C13.4331 8.05086 13.5562 7.60894 13.5562 7.15846C13.5562 6.70797 13.4331 6.26605 13.2002 5.88044V5.92844ZM16.5543 1.47037C16.5149 1.40103 16.4622 1.34013 16.3993 1.29114C16.3363 1.24216 16.2644 1.20605 16.1875 1.18488C16.1106 1.16371 16.0303 1.15789 15.9511 1.16775C15.872 1.17761 15.7956 1.20297 15.7262 1.24236C15.6569 1.28176 15.596 1.33443 15.547 1.39736C15.498 1.4603 15.4619 1.53226 15.4408 1.60915C15.4196 1.68604 15.4138 1.76634 15.4236 1.84548C15.4335 1.92462 15.4588 2.00104 15.4982 2.07038C16.3516 3.65643 16.7983 5.42939 16.7983 7.23046C16.7983 9.03153 16.3516 10.8045 15.4982 12.3905C15.4187 12.5306 15.398 12.6965 15.4408 12.8518C15.4835 13.007 15.5862 13.139 15.7262 13.2186C15.8663 13.2981 16.0322 13.3188 16.1875 13.276C16.3428 13.2333 16.4747 13.1306 16.5543 12.9905C17.5032 11.2286 18 9.25869 18 7.25746C18 5.25623 17.5032 3.28629 16.5543 1.52437V1.47037Z" fill="#093181"/>
</svg>
